# Export of Creator
# Blocksmith Builder 6.4.0.08
mtllib rock.mtl
v -0.4312406 1.323884 0.2635892
v 0.2530913 1.323884 0.1318398
v -0.2031312 1.323884 0.3953368
v 0.2530913 1.323884 -0.1316554
v -0.4312406 1.323884 -0.2634048
v -0.2031312 1.323884 -0.3951524
v 0.7744877 0.1785137 0.3953368
v 0.6984506 0.0003443956 -0.2634048
v 0.6984506 0.0003443956 0.2635892
v 0.7744877 0.1785137 -0.3951524
v 0.92656 0.5348507 0.1318398
v 0.92656 0.5348507 -0.1316554
v -0.3117543 0.0003443956 -0.8468612
v -0.2357172 0.1785137 -0.9786107
v -0.767975 0.0003443956 -0.5833642
v -0.5398656 0.5348507 -0.9786107
v -0.9200492 0.1785137 -0.5833642
v -0.767975 0.5348507 -0.8468612
v -0.767975 0.0003443956 0.5835487
v -0.9200492 0.1785137 0.5835487
v -0.3117543 0.0003443956 0.8470457
v -0.767975 0.5348507 0.8470457
v -0.2357172 0.1785137 0.9787951
v -0.5398656 0.5348507 0.9787951
v 0.92656 0.5348507 0.1318398
v 0.2530913 1.323884 -0.1316554
v 0.92656 0.5348507 -0.1316554
v 0.2530913 1.323884 0.1318398
v -0.3117543 0.0003443956 -0.8468612
v 0.7744877 0.1785137 -0.3951524
v -0.2357172 0.1785137 -0.9786107
v 0.6984506 0.0003443956 -0.2634048
v -0.5398656 0.5348507 -0.9786107
v -0.2031312 1.323884 -0.3951524
v -0.767975 0.5348507 -0.8468612
v -0.4312406 1.323884 -0.2634048
v -0.767975 0.0003443956 0.5835487
v -0.767975 0.0003443956 -0.5833642
v -0.9200492 0.1785137 0.5835487
v -0.9200492 0.1785137 -0.5833642
v -0.2357172 0.1785137 0.9787951
v 0.6984506 0.0003443956 0.2635892
v -0.3117543 0.0003443956 0.8470457
v 0.7744877 0.1785137 0.3953368
v -0.767975 0.5348507 0.8470457
v -0.4312406 1.323884 0.2635892
v -0.5398656 0.5348507 0.9787951
v -0.2031312 1.323884 0.3953368
v 0.2530913 1.323884 -0.1316554
v 0.7744877 0.1785137 -0.3951524
v 0.92656 0.5348507 -0.1316554
v -0.2357172 0.1785137 -0.9786107
v -0.2031312 1.323884 -0.3951524
v -0.5398656 0.5348507 -0.9786107
v -0.4312406 1.323884 0.2635892
v -0.767975 0.5348507 0.8470457
v -0.4312406 1.323884 -0.2634048
v -0.9200492 0.1785137 0.5835487
v -0.767975 0.5348507 -0.8468612
v -0.9200492 0.1785137 -0.5833642
v -0.2031312 1.323884 0.3953368
v -0.2357172 0.1785137 0.9787951
v -0.5398656 0.5348507 0.9787951
v 0.7744877 0.1785137 0.3953368
v 0.2530913 1.323884 0.1318398
v 0.92656 0.5348507 0.1318398
v 0.6984506 0.0003443956 0.2635892
v -0.767975 0.0003443956 0.5835487
v -0.3117543 0.0003443956 0.8470457
v -0.767975 0.0003443956 -0.5833642
v 0.6984506 0.0003443956 -0.2634048
v -0.3117543 0.0003443956 -0.8468612
vn 0 0.5053868 0
vn 0 0.5053868 0
vn 0 0.5053868 0
vn 0 0.5053868 0
vn 0 0.5053868 0
vn 0 0.5053868 0
vn 0.5751558 -0.1684621 0
vn 0.5751558 -0.1684621 0
vn 0.5751558 -0.1684621 0
vn 0.5751558 -0.1684621 0
vn 0.5751558 -0.1684621 0
vn 0.5751558 -0.1684621 0
vn -0.2875775 -0.1684626 -0.4982836
vn -0.2875775 -0.1684626 -0.4982836
vn -0.2875775 -0.1684626 -0.4982836
vn -0.287578 -0.168462 -0.4982834
vn -0.287578 -0.168462 -0.4982834
vn -0.2875783 -0.1684622 -0.4982833
vn -0.287578 -0.168462 0.4982834
vn -0.287578 -0.168462 0.4982834
vn -0.287578 -0.168462 0.4982834
vn -0.2875775 -0.1684621 0.4982837
vn -0.2875775 -0.1684621 0.4982837
vn -0.2875775 -0.1684621 0.4982837
vn 0.4980996 0.291785 0
vn 0.4980996 0.291785 0
vn 0.4980996 0.291785 0
vn 0.4980996 0.291785 0
vn 0.2490496 -0.2917851 -0.4315263
vn 0.2490496 -0.2917851 -0.4315263
vn 0.2490496 -0.2917851 -0.4315263
vn 0.2490496 -0.2917851 -0.4315263
vn -0.2490496 0.2917851 -0.4315263
vn -0.2490496 0.2917851 -0.4315263
vn -0.2490496 0.2917851 -0.4315263
vn -0.2490496 0.2917851 -0.4315263
vn -0.4980996 -0.291785 0
vn -0.4980996 -0.291785 0
vn -0.4980996 -0.291785 0
vn -0.4980996 -0.291785 0
vn 0.2490496 -0.2917851 0.4315263
vn 0.2490496 -0.2917851 0.4315263
vn 0.2490496 -0.2917851 0.4315263
vn 0.2490496 -0.2917851 0.4315263
vn -0.2490496 0.2917851 0.4315263
vn -0.2490496 0.2917851 0.4315263
vn -0.2490496 0.2917851 0.4315263
vn -0.2490496 0.2917851 0.4315263
vn 0.287578 0.168462 -0.4982834
vn 0.2875783 0.1684622 -0.4982833
vn 0.2875783 0.1684622 -0.4982833
vn 0.287578 0.168462 -0.4982834
vn 0.287578 0.168462 -0.4982834
vn 0.2875783 0.1684622 -0.4982833
vn -0.5751558 0.1684621 0
vn -0.5751558 0.1684621 0
vn -0.5751558 0.1684621 0
vn -0.5751558 0.1684621 0
vn -0.5751558 0.1684621 0
vn -0.5751558 0.1684621 0
vn 0.287578 0.168462 0.4982834
vn 0.287578 0.168462 0.4982834
vn 0.287578 0.168462 0.4982834
vn 0.287578 0.168462 0.4982834
vn 0.287578 0.168462 0.4982834
vn 0.287578 0.168462 0.4982834
vn 0 -0.5053868 0
vn 0 -0.5053868 0
vn 0 -0.5053868 0
vn 0 -0.5053868 0
vn 0 -0.5053868 0
vn 0 -0.5053868 0
vt 0.88811 0.193914
vt 0.831967 0.032376
vt 0.832099 0.161652
vt 0.887912 0
vt 1 0.129161
vt 0.999934 0.064523
vt 0.813605 0.480129
vt 0.981506 0.51262
vt 0.869616 0.447867
vt 0.98144 0.577258
vt 0.813473 0.609405
vt 0.869418 0.641781
vt 0.981506 0.770942
vt 0.98144 0.706304
vt 0.869616 0.835695
vt 0.869418 0.641781
vt 0.813605 0.803433
vt 0.813473 0.674157
vt 1 0.383115
vt 0.999934 0.318477
vt 0.88811 0.447867
vt 0.887912 0.253954
vt 0.832099 0.415606
vt 0.831967 0.28633
vt 0.416375 0.512352
vt 0.453401 0.798644
vt 0.453694 0.512391
vt 0.416083 0.798606
vt 0.453694 0.383344
vt 0.416083 0.097129
vt 0.416375 0.383382
vt 0.453401 0.09709
vt 0.000293 0.096785
vt 0 0.383039
vt 0.037611 0.096823
vt 0.037319 0.383077
vt 0.416083 0.14338
vt 0.168326 0
vt 0.39739 0.17568
vt 0.149634 0.0323
vt 0.831967 0.142873
vt 0.565291 0.032338
vt 0.81334 0.175211
vt 0.583917 0
vt 0.397258 0.304956
vt 0.149209 0.447829
vt 0.415884 0.337294
vt 0.167835 0.480167
vt 0.453401 0.798644
vt 0.565716 0.447867
vt 0.453694 0.512391
vt 0.813473 0.591247
vt 0.565291 0.863396
vt 0.81334 0.720523
vt 0.149209 0.447829
vt 0.397258 0.304956
vt 0.037319 0.383077
vt 0.39739 0.17568
vt 0.037611 0.096823
vt 0.149634 0.0323
vt 0 0.830944
vt 0.112315 0.480167
vt 0.000293 0.54469
vt 0.360071 0.623547
vt 0.11189 0.895697
vt 0.359939 0.752823
vt 0.565291 0.032338
vt 0.813473 0.304487
vt 0.81334 0.175211
vt 0.565716 0.447867
vt 0.453401 0.09709
vt 0.453694 0.383344
usemtl 3xR67Md0FcS2xd73clkEncRxdPAYevXr-101101101256-1-0-stylized
f 3/3/3 2/2/2 1/1/1
f 1/1/1 2/2/2 4/4/4
f 1/1/1 4/4/4 5/5/5
f 5/5/5 4/4/4 6/6/6
f 9/9/9 8/8/8 7/7/7
f 7/7/7 8/8/8 10/10/10
f 7/7/7 10/10/10 11/11/11
f 11/11/11 10/10/10 12/12/12
f 15/15/15 14/14/14 13/13/13
f 16/16/16 14/14/14 15/15/15
f 17/17/17 16/16/16 15/15/15
f 18/18/18 16/16/16 17/17/17
f 21/21/21 20/20/20 19/19/19
f 22/22/22 20/20/20 21/21/21
f 23/23/23 22/22/22 21/21/21
f 24/24/24 22/22/22 23/23/23
f 27/27/27 26/26/26 25/25/25
f 25/25/25 26/26/26 28/28/28
f 31/31/31 30/30/30 29/29/29
f 29/29/29 30/30/30 32/32/32
f 35/35/35 34/34/34 33/33/33
f 36/36/36 34/34/34 35/35/35
f 39/39/39 38/38/38 37/37/37
f 40/40/40 38/38/38 39/39/39
f 43/43/43 42/42/42 41/41/41
f 41/41/41 42/42/42 44/44/44
f 47/47/47 46/46/46 45/45/45
f 48/48/48 46/46/46 47/47/47
f 51/51/51 50/50/50 49/49/49
f 49/49/49 50/50/50 52/52/52
f 49/49/49 52/52/52 53/53/53
f 53/53/53 52/52/52 54/54/54
f 57/57/57 56/56/56 55/55/55
f 58/58/58 56/56/56 57/57/57
f 59/59/59 58/58/58 57/57/57
f 60/60/60 58/58/58 59/59/59
f 63/63/63 62/62/62 61/61/61
f 61/61/61 62/62/62 64/64/64
f 61/61/61 64/64/64 65/65/65
f 65/65/65 64/64/64 66/66/66
f 69/69/69 68/68/68 67/67/67
f 67/67/67 68/68/68 70/70/70
f 67/67/67 70/70/70 71/71/71
f 71/71/71 70/70/70 72/72/72
