# Export of Creator
# Blocksmith Builder 6.4.0.08
mtllib shrub.mtl
v 0 1.094811 -0.3087185
v 0.2572858 1.094811 -0.218297
v -7.769818E-08 1.173415 -9.724753E-08
v 0 0 -2.32894E-08
v 0.2572858 0.07860386 -0.2182969
v -1.263544E-08 0.07860386 -0.3087184
v 0.2572858 1.094811 -0.218297
v 0.3638571 1.094811 -1.430804E-07
v -7.769818E-08 1.173415 -9.724753E-08
v 0 0 -2.32894E-08
v 0.3638571 0.07860392 -3.113959E-08
v 0.2572858 0.07860386 -0.2182969
v 0 0 -2.32894E-08
v 0.2572858 0.07860392 0.2182968
v 0.3638571 0.07860392 -3.113959E-08
v 0.3638571 1.094811 -1.430804E-07
v 0.2572858 1.094811 0.2182967
v -7.769818E-08 1.173415 -9.724753E-08
v 0 0 -2.32894E-08
v -1.79165E-09 0.07860392 0.3087183
v 0.2572858 0.07860392 0.2182968
v 0.2572858 1.094811 0.2182967
v -3.432302E-08 1.094811 0.3087182
v -7.769818E-08 1.173415 -9.724753E-08
v 0 0 -2.32894E-08
v -0.2572858 0.07860392 0.2182968
v -1.79165E-09 0.07860392 0.3087183
v -3.432302E-08 1.094811 0.3087182
v -0.2572858 1.094811 0.2182967
v -7.769818E-08 1.173415 -9.724753E-08
v -0.2572858 1.094811 0.2182967
v -0.3638571 1.094811 -1.798825E-07
v -7.769818E-08 1.173415 -9.724753E-08
v 0 0 -2.32894E-08
v -0.3638571 0.07860392 -3.113959E-08
v -0.2572858 0.07860392 0.2182968
v -0.3638571 1.094811 -1.798825E-07
v -0.2572858 1.094811 -0.218297
v -7.769818E-08 1.173415 -9.724753E-08
v 0 0 -2.32894E-08
v -0.2572858 0.07860386 -0.2182969
v -0.3638571 0.07860392 -3.113959E-08
v -0.2572858 1.094811 -0.218297
v 0 1.094811 -0.3087185
v -7.769818E-08 1.173415 -9.724753E-08
v 0 0 -2.32894E-08
v -1.263544E-08 0.07860386 -0.3087184
v -0.2572858 0.07860386 -0.2182969
v -1.263544E-08 0.07860386 -0.3087184
v 0.2572858 0.07860386 -0.2182969
v 0.4456322 0.2933536 -0.3781013
v 0 0.2933536 -0.5347161
v 9.05214E-09 0.5867073 -0.6174368
v 0.5145717 0.5867074 -0.4365939
v 0.4456322 0.880061 -0.3781014
v -3.432302E-08 0.880061 -0.534716
v 0 0.2933536 -0.5347161
v 0.4456322 0.2933536 -0.3781013
v 0.5145717 0.5867074 -0.4365939
v 9.05214E-09 0.5867073 -0.6174368
v -3.432302E-08 0.880061 -0.534716
v 0.4456322 0.880061 -0.3781014
v 0.2572858 1.094811 -0.218297
v 0 1.094811 -0.3087185
v 0.4456322 0.2933536 -0.3781013
v 0.6302191 0.2933537 -8.434134E-08
v 0.7277142 0.5867074 -8.250972E-08
v 0.5145717 0.5867074 -0.4365939
v 0.4456322 0.880061 -0.3781014
v 0.6302191 0.8800611 -1.358813E-07
v 0.3638571 1.094811 -1.430804E-07
v 0.2572858 1.094811 -0.218297
v 0.2572858 0.07860386 -0.2182969
v 0.3638571 0.07860392 -3.113959E-08
v 0.6302191 0.2933537 -8.434134E-08
v 0.4456322 0.2933536 -0.3781013
v 0.5145717 0.5867074 -0.4365939
v 0.7277142 0.5867074 -8.250972E-08
v 0.6302191 0.8800611 -1.358813E-07
v 0.4456322 0.880061 -0.3781014
v 0.6302191 0.2933537 -8.434134E-08
v 0.4456322 0.2933537 0.3781012
v 0.5145717 0.5867074 0.4365936
v 0.7277142 0.5867074 -8.250972E-08
v 0.6302191 0.8800611 -1.358813E-07
v 0.4456322 0.8800611 0.3781012
v 0.2572858 1.094811 0.2182967
v 0.3638571 1.094811 -1.430804E-07
v 0.3638571 0.07860392 -3.113959E-08
v 0.2572858 0.07860392 0.2182968
v 0.4456322 0.2933537 0.3781012
v 0.6302191 0.2933537 -8.434134E-08
v 0.7277142 0.5867074 -8.250972E-08
v 0.5145717 0.5867074 0.4365936
v 0.4456322 0.8800611 0.3781012
v 0.6302191 0.8800611 -1.358813E-07
v 0.4456322 0.2933537 0.3781012
v 9.05214E-09 0.2933538 0.5347158
v 9.05214E-09 0.5867075 0.6174366
v 0.5145717 0.5867074 0.4365936
v 0.4456322 0.8800611 0.3781012
v 3.073972E-08 0.8800611 0.5347158
v -3.432302E-08 1.094811 0.3087182
v 0.2572858 1.094811 0.2182967
v 0.2572858 0.07860392 0.2182968
v -1.79165E-09 0.07860392 0.3087183
v 9.05214E-09 0.2933538 0.5347158
v 0.4456322 0.2933537 0.3781012
v 0.5145717 0.5867074 0.4365936
v 9.05214E-09 0.5867075 0.6174366
v 3.073972E-08 0.8800611 0.5347158
v 0.4456322 0.8800611 0.3781012
v 9.05214E-09 0.2933538 0.5347158
v -0.4456321 0.2933537 0.3781011
v -0.5145717 0.5867074 0.4365936
v 9.05214E-09 0.5867075 0.6174366
v 3.073972E-08 0.8800611 0.5347158
v -0.4456321 0.8800611 0.3781012
v -0.2572858 1.094811 0.2182967
v -3.432302E-08 1.094811 0.3087182
v -1.79165E-09 0.07860392 0.3087183
v -0.2572858 0.07860392 0.2182968
v -0.4456321 0.2933537 0.3781011
v 9.05214E-09 0.2933538 0.5347158
v 9.05214E-09 0.5867075 0.6174366
v -0.5145717 0.5867074 0.4365936
v -0.4456321 0.8800611 0.3781012
v 3.073972E-08 0.8800611 0.5347158
v -0.4456321 0.2933537 0.3781011
v -0.6302189 0.2933537 -6.594028E-08
v -0.7277142 0.5867074 -1.009108E-07
v -0.5145717 0.5867074 0.4365936
v -0.4456321 0.8800611 0.3781012
v -0.630219 0.8800611 -9.907914E-08
v -0.3638571 1.094811 -1.798825E-07
v -0.2572858 1.094811 0.2182967
v -0.2572858 0.07860392 0.2182968
v -0.3638571 0.07860392 -3.113959E-08
v -0.6302189 0.2933537 -6.594028E-08
v -0.4456321 0.2933537 0.3781011
v -0.5145717 0.5867074 0.4365936
v -0.7277142 0.5867074 -1.009108E-07
v -0.630219 0.8800611 -9.907914E-08
v -0.4456321 0.8800611 0.3781012
v -0.630219 0.8800611 -9.907914E-08
v -0.4456322 0.880061 -0.3781013
v -0.2572858 1.094811 -0.218297
v -0.3638571 1.094811 -1.798825E-07
v -0.3638571 0.07860392 -3.113959E-08
v -0.2572858 0.07860386 -0.2182969
v -0.4456321 0.2933536 -0.3781013
v -0.6302189 0.2933537 -6.594028E-08
v -0.7277142 0.5867074 -1.009108E-07
v -0.5145717 0.5867074 -0.4365938
v -0.4456322 0.880061 -0.3781013
v -0.630219 0.8800611 -9.907914E-08
v -0.6302189 0.2933537 -6.594028E-08
v -0.4456321 0.2933536 -0.3781013
v -0.5145717 0.5867074 -0.4365938
v -0.7277142 0.5867074 -1.009108E-07
v -0.2572858 0.07860386 -0.2182969
v -1.263544E-08 0.07860386 -0.3087184
v 0 0.2933536 -0.5347161
v -0.4456321 0.2933536 -0.3781013
v -0.5145717 0.5867074 -0.4365938
v 9.05214E-09 0.5867073 -0.6174368
v -3.432302E-08 0.880061 -0.534716
v -0.4456322 0.880061 -0.3781013
v -0.4456321 0.2933536 -0.3781013
v 0 0.2933536 -0.5347161
v 9.05214E-09 0.5867073 -0.6174368
v -0.5145717 0.5867074 -0.4365938
v -0.4456322 0.880061 -0.3781013
v -3.432302E-08 0.880061 -0.534716
v 0 1.094811 -0.3087185
v -0.2572858 1.094811 -0.218297
vn 0.06924276 0.5029886 -0.1418345
vn 0.06924276 0.5029886 -0.1418345
vn 0.06924276 0.5029886 -0.1418345
vn 0.06924267 -0.5029886 -0.1418344
vn 0.06924267 -0.5029886 -0.1418344
vn 0.06924267 -0.5029886 -0.1418344
vn 0.1671668 0.5029886 -0.0587498
vn 0.1671668 0.5029886 -0.0587498
vn 0.1671668 0.5029886 -0.0587498
vn 0.1671668 -0.5029886 -0.05874969
vn 0.1671668 -0.5029886 -0.05874969
vn 0.1671668 -0.5029886 -0.05874969
vn 0.1671668 -0.5029886 0.05874982
vn 0.1671668 -0.5029886 0.05874982
vn 0.1671668 -0.5029886 0.05874982
vn 0.167167 0.5029886 0.0587497
vn 0.167167 0.5029886 0.0587497
vn 0.167167 0.5029886 0.0587497
vn 0.06924279 -0.5029886 0.1418345
vn 0.06924279 -0.5029886 0.1418345
vn 0.06924279 -0.5029886 0.1418345
vn 0.0692428 0.5029886 0.1418344
vn 0.0692428 0.5029886 0.1418344
vn 0.0692428 0.5029886 0.1418344
vn -0.06924279 -0.5029886 0.1418345
vn -0.06924279 -0.5029886 0.1418345
vn -0.06924279 -0.5029886 0.1418345
vn -0.06924281 0.5029886 0.1418345
vn -0.06924281 0.5029886 0.1418345
vn -0.06924281 0.5029886 0.1418345
vn -0.167167 0.5029886 0.0587497
vn -0.167167 0.5029886 0.0587497
vn -0.167167 0.5029886 0.0587497
vn -0.1671668 -0.5029886 0.05874982
vn -0.1671668 -0.5029886 0.05874982
vn -0.1671668 -0.5029886 0.05874982
vn -0.1671669 0.5029886 -0.05874985
vn -0.1671669 0.5029886 -0.05874985
vn -0.1671669 0.5029886 -0.05874985
vn -0.1671668 -0.5029886 -0.05874971
vn -0.1671668 -0.5029886 -0.05874971
vn -0.1671668 -0.5029886 -0.05874971
vn -0.06924279 0.5029886 -0.1418345
vn -0.06924279 0.5029886 -0.1418345
vn -0.06924279 0.5029886 -0.1418345
vn -0.06924279 -0.5029886 -0.1418344
vn -0.06924279 -0.5029886 -0.1418344
vn -0.06924279 -0.5029886 -0.1418344
vn 0.182588 -0.355393 -0.3740069
vn 0.182588 -0.355393 -0.3740069
vn 0.182588 -0.355393 -0.3740069
vn 0.182588 -0.355393 -0.3740069
vn 0.241301 0.1258484 -0.4942729
vn 0.241301 0.1258484 -0.4942729
vn 0.241301 0.1258484 -0.4942729
vn 0.241301 0.1258484 -0.4942729
vn 0.2413011 -0.1258485 -0.4942729
vn 0.2413011 -0.1258485 -0.4942729
vn 0.2413011 -0.1258485 -0.4942729
vn 0.2413011 -0.1258485 -0.4942729
vn 0.182588 0.3553928 -0.374007
vn 0.182588 0.3553928 -0.374007
vn 0.182588 0.3553928 -0.374007
vn 0.182588 0.3553928 -0.374007
vn 0.5825526 -0.1258485 -0.2047344
vn 0.5825526 -0.1258485 -0.2047344
vn 0.5825526 -0.1258485 -0.2047344
vn 0.5825526 -0.1258485 -0.2047344
vn 0.4408066 0.3553928 -0.1549188
vn 0.4408066 0.3553928 -0.1549188
vn 0.4408066 0.3553928 -0.1549188
vn 0.4408066 0.3553928 -0.1549188
vn 0.4408065 -0.3553929 -0.1549187
vn 0.4408065 -0.3553929 -0.1549187
vn 0.4408065 -0.3553929 -0.1549187
vn 0.4408065 -0.3553929 -0.1549187
vn 0.5825526 0.1258484 -0.2047345
vn 0.5825526 0.1258484 -0.2047345
vn 0.5825526 0.1258484 -0.2047345
vn 0.5825526 0.1258484 -0.2047345
vn 0.5825526 -0.1258485 0.2047345
vn 0.5825526 -0.1258485 0.2047345
vn 0.5825526 -0.1258485 0.2047345
vn 0.5825526 -0.1258485 0.2047345
vn 0.4408065 0.3553929 0.1549187
vn 0.4408065 0.3553929 0.1549187
vn 0.4408065 0.3553929 0.1549187
vn 0.4408065 0.3553929 0.1549187
vn 0.4408066 -0.3553928 0.1549187
vn 0.4408066 -0.3553928 0.1549187
vn 0.4408066 -0.3553928 0.1549187
vn 0.4408066 -0.3553928 0.1549187
vn 0.5825526 0.1258485 0.2047345
vn 0.5825526 0.1258485 0.2047345
vn 0.5825526 0.1258485 0.2047345
vn 0.5825526 0.1258485 0.2047345
vn 0.2413011 -0.1258483 0.4942729
vn 0.2413011 -0.1258483 0.4942729
vn 0.2413011 -0.1258483 0.4942729
vn 0.2413011 -0.1258483 0.4942729
vn 0.182588 0.3553928 0.374007
vn 0.182588 0.3553928 0.374007
vn 0.182588 0.3553928 0.374007
vn 0.182588 0.3553928 0.374007
vn 0.182588 -0.3553928 0.374007
vn 0.182588 -0.3553928 0.374007
vn 0.182588 -0.3553928 0.374007
vn 0.182588 -0.3553928 0.374007
vn 0.2413011 0.1258485 0.4942729
vn 0.2413011 0.1258485 0.4942729
vn 0.2413011 0.1258485 0.4942729
vn 0.2413011 0.1258485 0.4942729
vn -0.2413012 -0.1258485 0.4942728
vn -0.2413012 -0.1258485 0.4942728
vn -0.2413012 -0.1258485 0.4942728
vn -0.2413012 -0.1258485 0.4942728
vn -0.1825881 0.3553928 0.374007
vn -0.1825881 0.3553928 0.374007
vn -0.1825881 0.3553928 0.374007
vn -0.1825881 0.3553928 0.374007
vn -0.1825881 -0.3553928 0.374007
vn -0.1825881 -0.3553928 0.374007
vn -0.1825881 -0.3553928 0.374007
vn -0.1825881 -0.3553928 0.374007
vn -0.2413012 0.1258485 0.4942729
vn -0.2413012 0.1258485 0.4942729
vn -0.2413012 0.1258485 0.4942729
vn -0.2413012 0.1258485 0.4942729
vn -0.5825526 -0.1258485 0.2047345
vn -0.5825526 -0.1258485 0.2047345
vn -0.5825526 -0.1258485 0.2047345
vn -0.5825526 -0.1258485 0.2047345
vn -0.4408066 0.3553928 0.1549187
vn -0.4408066 0.3553928 0.1549187
vn -0.4408066 0.3553928 0.1549187
vn -0.4408066 0.3553928 0.1549187
vn -0.4408066 -0.3553928 0.1549188
vn -0.4408066 -0.3553928 0.1549188
vn -0.4408066 -0.3553928 0.1549188
vn -0.4408066 -0.3553928 0.1549188
vn -0.5825526 0.1258485 0.2047345
vn -0.5825526 0.1258485 0.2047345
vn -0.5825526 0.1258485 0.2047345
vn -0.5825526 0.1258485 0.2047345
vn -0.4408067 0.3553928 -0.1549188
vn -0.4408067 0.3553928 -0.1549188
vn -0.4408067 0.3553928 -0.1549188
vn -0.4408067 0.3553928 -0.1549188
vn -0.4408067 -0.3553928 -0.1549187
vn -0.4408067 -0.3553928 -0.1549187
vn -0.4408067 -0.3553928 -0.1549187
vn -0.4408067 -0.3553928 -0.1549187
vn -0.5825526 0.1258484 -0.2047345
vn -0.5825526 0.1258484 -0.2047345
vn -0.5825526 0.1258484 -0.2047345
vn -0.5825526 0.1258484 -0.2047345
vn -0.5825526 -0.1258485 -0.2047345
vn -0.5825526 -0.1258485 -0.2047345
vn -0.5825526 -0.1258485 -0.2047345
vn -0.5825526 -0.1258485 -0.2047345
vn -0.182588 -0.3553929 -0.3740069
vn -0.182588 -0.3553929 -0.3740069
vn -0.182588 -0.3553929 -0.3740069
vn -0.182588 -0.3553929 -0.3740069
vn -0.2413012 0.1258485 -0.4942728
vn -0.2413012 0.1258485 -0.4942728
vn -0.2413012 0.1258485 -0.4942728
vn -0.2413012 0.1258485 -0.4942728
vn -0.2413012 -0.1258485 -0.4942728
vn -0.2413012 -0.1258485 -0.4942728
vn -0.2413012 -0.1258485 -0.4942728
vn -0.2413012 -0.1258485 -0.4942728
vn -0.1825881 0.3553927 -0.3740071
vn -0.1825881 0.3553927 -0.3740071
vn -0.1825881 0.3553927 -0.3740071
vn -0.1825881 0.3553927 -0.3740071
vt 0.75 0.8333333
vt 0.625 0.8333334
vt 0.6875 1
vt 0.6875 0
vt 0.625 0.1666667
vt 0.75 0.1666667
vt 0.625 0.8333334
vt 0.5000001 0.8333334
vt 0.5625001 1
vt 0.5625001 0
vt 0.5000001 0.1666666
vt 0.625 0.1666667
vt 0.4375001 0
vt 0.375 0.1666666
vt 0.5000001 0.1666666
vt 0.5000001 0.8333334
vt 0.375 0.8333334
vt 0.4375 1
vt 0.3125 0
vt 0.25 0.1666666
vt 0.375 0.1666666
vt 0.375 0.8333334
vt 0.25 0.8333334
vt 0.3125 1
vt 0.1875 0
vt 0.125 0.1666666
vt 0.25 0.1666666
vt 0.25 0.8333334
vt 0.125 0.8333334
vt 0.1875 1
vt 0.125 0.8333334
vt 0 0.8333334
vt 0.06249994 1
vt 0.06249994 0
vt 0 0.1666666
vt 0.125 0.1666666
vt 1 0.8333334
vt 0.8749999 0.8333334
vt 0.9374999 1
vt 0.9374999 0
vt 0.8749999 0.1666667
vt 1 0.1666666
vt 0.8749999 0.8333334
vt 0.75 0.8333333
vt 0.8125 1
vt 0.8125 0
vt 0.75 0.1666667
vt 0.8749999 0.1666667
vt 0.75 0.1666667
vt 0.625 0.1666667
vt 0.625 0.3333333
vt 0.75 0.3333333
vt 0.75 0.5
vt 0.625 0.5
vt 0.625 0.6666666
vt 0.75 0.6666667
vt 0.75 0.3333333
vt 0.625 0.3333333
vt 0.625 0.5
vt 0.75 0.5
vt 0.75 0.6666667
vt 0.625 0.6666666
vt 0.625 0.8333334
vt 0.75 0.8333333
vt 0.625 0.3333333
vt 0.5000001 0.3333333
vt 0.5 0.5
vt 0.625 0.5
vt 0.625 0.6666666
vt 0.5000001 0.6666667
vt 0.5000001 0.8333334
vt 0.625 0.8333334
vt 0.625 0.1666667
vt 0.5000001 0.1666666
vt 0.5000001 0.3333333
vt 0.625 0.3333333
vt 0.625 0.5
vt 0.5 0.5
vt 0.5000001 0.6666667
vt 0.625 0.6666666
vt 0.5000001 0.3333333
vt 0.375 0.3333333
vt 0.375 0.5
vt 0.5 0.5
vt 0.5000001 0.6666667
vt 0.375 0.6666667
vt 0.375 0.8333334
vt 0.5000001 0.8333334
vt 0.5000001 0.1666666
vt 0.375 0.1666666
vt 0.375 0.3333333
vt 0.5000001 0.3333333
vt 0.5 0.5
vt 0.375 0.5
vt 0.375 0.6666667
vt 0.5000001 0.6666667
vt 0.375 0.3333333
vt 0.25 0.3333333
vt 0.25 0.5
vt 0.375 0.5
vt 0.375 0.6666667
vt 0.25 0.6666667
vt 0.25 0.8333334
vt 0.375 0.8333334
vt 0.375 0.1666666
vt 0.25 0.1666666
vt 0.25 0.3333333
vt 0.375 0.3333333
vt 0.375 0.5
vt 0.25 0.5
vt 0.25 0.6666667
vt 0.375 0.6666667
vt 0.25 0.3333333
vt 0.125 0.3333333
vt 0.125 0.5
vt 0.25 0.5
vt 0.25 0.6666667
vt 0.125 0.6666667
vt 0.125 0.8333334
vt 0.25 0.8333334
vt 0.25 0.1666666
vt 0.125 0.1666666
vt 0.125 0.3333333
vt 0.25 0.3333333
vt 0.25 0.5
vt 0.125 0.5
vt 0.125 0.6666667
vt 0.25 0.6666667
vt 0.125 0.3333333
vt 0 0.3333333
vt 0 0.5
vt 0.125 0.5
vt 0.125 0.6666667
vt 0 0.6666667
vt 0 0.8333334
vt 0.125 0.8333334
vt 0.125 0.1666666
vt 0 0.1666666
vt 0 0.3333333
vt 0.125 0.3333333
vt 0.125 0.5
vt 0 0.5
vt 0 0.6666667
vt 0.125 0.6666667
vt 1 0.6666667
vt 0.875 0.6666667
vt 0.8749999 0.8333334
vt 1 0.8333334
vt 1 0.1666666
vt 0.8749999 0.1666667
vt 0.8749999 0.3333333
vt 1 0.3333333
vt 1 0.5
vt 0.8749999 0.5
vt 0.875 0.6666667
vt 1 0.6666667
vt 1 0.3333333
vt 0.8749999 0.3333333
vt 0.8749999 0.5
vt 1 0.5
vt 0.8749999 0.1666667
vt 0.75 0.1666667
vt 0.75 0.3333333
vt 0.8749999 0.3333333
vt 0.8749999 0.5
vt 0.75 0.5
vt 0.75 0.6666667
vt 0.875 0.6666667
vt 0.8749999 0.3333333
vt 0.75 0.3333333
vt 0.75 0.5
vt 0.8749999 0.5
vt 0.875 0.6666667
vt 0.75 0.6666667
vt 0.75 0.8333333
vt 0.8749999 0.8333334
usemtl 3xR67Md0FcS2xd73clkEncRxdPAYevXr-6913669256-1-0-stylized
f 3/3/3 2/2/2 1/1/1
f 6/6/6 5/5/5 4/4/4
f 9/9/9 8/8/8 7/7/7
f 12/12/12 11/11/11 10/10/10
f 15/15/15 14/14/14 13/13/13
f 18/18/18 17/17/17 16/16/16
f 21/21/21 20/20/20 19/19/19
f 24/24/24 23/23/23 22/22/22
f 27/27/27 26/26/26 25/25/25
f 30/30/30 29/29/29 28/28/28
f 33/33/33 32/32/32 31/31/31
f 36/36/36 35/35/35 34/34/34
f 39/39/39 38/38/38 37/37/37
f 42/42/42 41/41/41 40/40/40
f 45/45/45 44/44/44 43/43/43
f 48/48/48 47/47/47 46/46/46
f 51/51/51 50/50/50 49/49/49
f 52/52/52 51/51/51 49/49/49
f 55/55/55 54/54/54 53/53/53
f 56/56/56 55/55/55 53/53/53
f 59/59/59 58/58/58 57/57/57
f 60/60/60 59/59/59 57/57/57
f 63/63/63 62/62/62 61/61/61
f 64/64/64 63/63/63 61/61/61
f 67/67/67 66/66/66 65/65/65
f 68/68/68 67/67/67 65/65/65
f 71/71/71 70/70/70 69/69/69
f 72/72/72 71/71/71 69/69/69
f 75/75/75 74/74/74 73/73/73
f 76/76/76 75/75/75 73/73/73
f 79/79/79 78/78/78 77/77/77
f 80/80/80 79/79/79 77/77/77
f 83/83/83 82/82/82 81/81/81
f 84/84/84 83/83/83 81/81/81
f 87/87/87 86/86/86 85/85/85
f 88/88/88 87/87/87 85/85/85
f 91/91/91 90/90/90 89/89/89
f 92/92/92 91/91/91 89/89/89
f 95/95/95 94/94/94 93/93/93
f 96/96/96 95/95/95 93/93/93
f 99/99/99 98/98/98 97/97/97
f 100/100/100 99/99/99 97/97/97
f 103/103/103 102/102/102 101/101/101
f 104/104/104 103/103/103 101/101/101
f 107/107/107 106/106/106 105/105/105
f 108/108/108 107/107/107 105/105/105
f 111/111/111 110/110/110 109/109/109
f 112/112/112 111/111/111 109/109/109
f 115/115/115 114/114/114 113/113/113
f 116/116/116 115/115/115 113/113/113
f 119/119/119 118/118/118 117/117/117
f 120/120/120 119/119/119 117/117/117
f 123/123/123 122/122/122 121/121/121
f 124/124/124 123/123/123 121/121/121
f 127/127/127 126/126/126 125/125/125
f 128/128/128 127/127/127 125/125/125
f 131/131/131 130/130/130 129/129/129
f 132/132/132 131/131/131 129/129/129
f 135/135/135 134/134/134 133/133/133
f 136/136/136 135/135/135 133/133/133
f 139/139/139 138/138/138 137/137/137
f 140/140/140 139/139/139 137/137/137
f 143/143/143 142/142/142 141/141/141
f 144/144/144 143/143/143 141/141/141
f 147/147/147 146/146/146 145/145/145
f 148/148/148 147/147/147 145/145/145
f 151/151/151 150/150/150 149/149/149
f 152/152/152 151/151/151 149/149/149
f 155/155/155 154/154/154 153/153/153
f 156/156/156 155/155/155 153/153/153
f 159/159/159 158/158/158 157/157/157
f 160/160/160 159/159/159 157/157/157
f 163/163/163 162/162/162 161/161/161
f 164/164/164 163/163/163 161/161/161
f 167/167/167 166/166/166 165/165/165
f 168/168/168 167/167/167 165/165/165
f 171/171/171 170/170/170 169/169/169
f 172/172/172 171/171/171 169/169/169
f 175/175/175 174/174/174 173/173/173
f 176/176/176 175/175/175 173/173/173
