# Export of Creator
# Blocksmith Builder 6.4.0.08
mtllib shrub.mtl
v 0.4134188 0.4130608 -0.2674873
v 0.3158239 0.3583866 -0.483889
v 0.3158239 0.1814574 -0.483889
v 0.4737358 0.269922 -0.1337436
v 0.4134188 0.1267833 -0.2674872
v -0.3158239 0.3583866 -0.483889
v -0.4134188 0.4130608 -0.2674873
v -0.4737358 0.269922 -0.1337436
v -0.3158239 0.1814574 -0.483889
v -0.4134188 0.1267833 -0.2674872
v 0.3158239 0.3583867 0.483889
v 0.4134188 0.4130608 0.2674872
v 0.4737358 0.2699221 0.1337436
v 0.3158239 0.1814575 0.483889
v 0.4134188 0.1267834 0.2674873
v -0.4134188 0.4130608 0.2674872
v -0.3158239 0.3583867 0.483889
v -0.3158239 0.1814575 0.483889
v -0.4737358 0.2699221 0.1337436
v -0.4134188 0.1267834 0.2674873
v 0.1951899 0.644664 -0.2164018
v 0.3531018 0.5561994 -0.1337437
v 0.3531018 0.5561995 0.1337436
v 0.09759494 0.6993382 -5.119039E-08
v 0.1951899 0.644664 0.2164017
v 0.3531018 -0.01635534 -0.1337436
v 0.1951899 -0.1048199 -0.2164017
v 0.09759494 -0.159494 5.119039E-08
v 0.3531018 -0.01635531 0.1337437
v 0.1951899 -0.1048199 0.2164018
v -0.3531018 0.5561994 -0.1337437
v -0.1951899 0.644664 -0.2164018
v -0.09759494 0.6993382 -5.119039E-08
v -0.3531018 0.5561995 0.1337436
v -0.1951899 0.644664 0.2164017
v -0.1951899 -0.1048199 -0.2164017
v -0.3531018 -0.01635534 -0.1337436
v -0.3531018 -0.01635531 0.1337437
v -0.09759494 -0.159494 5.119039E-08
v -0.1951899 -0.1048199 0.2164018
v 0.157912 0.4468512 -0.5665471
v 0.09759495 0.5899899 -0.4328035
v -0.09759495 0.5899899 -0.4328035
v 0 0.3583866 -0.6492052
v -0.157912 0.4468512 -0.5665471
v 0.09759495 0.58999 0.4328034
v 0.157912 0.4468513 0.566547
v 0 0.3583868 0.6492051
v -0.09759495 0.58999 0.4328034
v -0.157912 0.4468513 0.566547
v 0.09759495 -0.05014583 -0.4328034
v 0.157912 0.09299284 -0.566547
v 0 0.1814574 -0.6492051
v -0.09759495 -0.05014583 -0.4328034
v -0.157912 0.09299284 -0.566547
v 0.157912 0.09299298 0.5665471
v 0.09759495 -0.05014575 0.4328035
v -0.09759495 -0.05014575 0.4328035
v 0 0.1814576 0.6492052
v -0.157912 0.09299298 0.5665471
v 0.4134188 0.4130608 -0.2674873
v 0.3531018 0.5561994 -0.1337437
v 0.1951899 0.644664 -0.2164018
v 0.3158239 0.3583866 -0.483889
v 0.09759495 0.5899899 -0.4328035
v 0.157912 0.4468512 -0.5665471
v 0.3158239 0.1814574 -0.483889
v 0.157912 0.09299284 -0.566547
v 0.09759495 -0.05014583 -0.4328034
v 0.4134188 0.1267833 -0.2674872
v 0.1951899 -0.1048199 -0.2164017
v 0.3531018 -0.01635534 -0.1337436
v 0.3158239 0.3583867 0.483889
v 0.157912 0.4468513 0.566547
v 0.09759495 0.58999 0.4328034
v 0.4134188 0.4130608 0.2674872
v 0.1951899 0.644664 0.2164017
v 0.3531018 0.5561995 0.1337436
v 0.4134188 0.1267834 0.2674873
v 0.3531018 -0.01635531 0.1337437
v 0.1951899 -0.1048199 0.2164018
v 0.3158239 0.1814575 0.483889
v 0.09759495 -0.05014575 0.4328035
v 0.157912 0.09299298 0.5665471
v -0.3158239 0.3583866 -0.483889
v -0.157912 0.4468512 -0.5665471
v -0.09759495 0.5899899 -0.4328035
v -0.4134188 0.4130608 -0.2674873
v -0.1951899 0.644664 -0.2164018
v -0.3531018 0.5561994 -0.1337437
v -0.4134188 0.1267833 -0.2674872
v -0.3531018 -0.01635534 -0.1337436
v -0.1951899 -0.1048199 -0.2164017
v -0.3158239 0.1814574 -0.483889
v -0.09759495 -0.05014583 -0.4328034
v -0.157912 0.09299284 -0.566547
v -0.4134188 0.4130608 0.2674872
v -0.3531018 0.5561995 0.1337436
v -0.1951899 0.644664 0.2164017
v -0.3158239 0.3583867 0.483889
v -0.09759495 0.58999 0.4328034
v -0.157912 0.4468513 0.566547
v -0.3158239 0.1814575 0.483889
v -0.157912 0.09299298 0.5665471
v -0.09759495 -0.05014575 0.4328035
v -0.4134188 0.1267834 0.2674873
v -0.1951899 -0.1048199 0.2164018
v -0.3531018 -0.01635531 0.1337437
v 0.3158239 0.3583866 -0.483889
v 0.157912 0.4468512 -0.5665471
v 0 0.3583866 -0.6492052
v 0.3158239 0.1814574 -0.483889
v 0 0.1814574 -0.6492051
v 0.157912 0.09299284 -0.566547
v -0.3158239 0.1814574 -0.483889
v -0.157912 0.09299284 -0.566547
v 0 0.1814574 -0.6492051
v -0.3158239 0.3583866 -0.483889
v 0 0.3583866 -0.6492052
v -0.157912 0.4468512 -0.5665471
v 0.3158239 0.1814575 0.483889
v 0.157912 0.09299298 0.5665471
v 0 0.1814576 0.6492052
v 0.3158239 0.3583867 0.483889
v 0 0.3583868 0.6492051
v 0.157912 0.4468513 0.566547
v -0.3158239 0.3583867 0.483889
v -0.157912 0.4468513 0.566547
v 0 0.3583868 0.6492051
v -0.3158239 0.1814575 0.483889
v 0 0.1814576 0.6492052
v -0.157912 0.09299298 0.5665471
v 0.3531018 0.5561994 -0.1337437
v 0.4134188 0.4130608 -0.2674873
v 0.4737358 0.269922 -0.1337436
v 0.3531018 0.5561995 0.1337436
v 0.4737358 0.2699221 0.1337436
v 0.4134188 0.4130608 0.2674872
v 0.3531018 -0.01635531 0.1337437
v 0.4134188 0.1267834 0.2674873
v 0.4737358 0.2699221 0.1337436
v 0.3531018 -0.01635534 -0.1337436
v 0.4737358 0.269922 -0.1337436
v 0.4134188 0.1267833 -0.2674872
v -0.3531018 0.5561995 0.1337436
v -0.4134188 0.4130608 0.2674872
v -0.4737358 0.2699221 0.1337436
v -0.3531018 0.5561994 -0.1337437
v -0.4737358 0.269922 -0.1337436
v -0.4134188 0.4130608 -0.2674873
v -0.3531018 -0.01635534 -0.1337436
v -0.4134188 0.1267833 -0.2674872
v -0.4737358 0.269922 -0.1337436
v -0.3531018 -0.01635531 0.1337437
v -0.4737358 0.2699221 0.1337436
v -0.4134188 0.1267834 0.2674873
v 0.09759495 0.5899899 -0.4328035
v 0.1951899 0.644664 -0.2164018
v 0.09759494 0.6993382 -5.119039E-08
v -0.09759495 0.5899899 -0.4328035
v -0.09759494 0.6993382 -5.119039E-08
v -0.1951899 0.644664 -0.2164018
v -0.09759495 0.58999 0.4328034
v -0.1951899 0.644664 0.2164017
v -0.09759494 0.6993382 -5.119039E-08
v 0.09759495 0.58999 0.4328034
v 0.09759494 0.6993382 -5.119039E-08
v 0.1951899 0.644664 0.2164017
v -0.09759495 -0.05014583 -0.4328034
v -0.1951899 -0.1048199 -0.2164017
v -0.09759494 -0.159494 5.119039E-08
v 0.09759495 -0.05014583 -0.4328034
v 0.09759494 -0.159494 5.119039E-08
v 0.1951899 -0.1048199 -0.2164017
v 0.09759495 -0.05014575 0.4328035
v 0.1951899 -0.1048199 0.2164018
v 0.09759494 -0.159494 5.119039E-08
v -0.09759495 -0.05014575 0.4328035
v -0.09759494 -0.159494 5.119039E-08
v -0.1951899 -0.1048199 0.2164018
vn 0.4422546 -4.465196E-08 -0.3745678
vn 0.4422546 -4.465196E-08 -0.3745678
vn 0.4422546 -4.465196E-08 -0.3745678
vn 0.4422546 -4.465196E-08 -0.3745678
vn 0.4422545 -4.465199E-08 -0.374568
vn -0.4422546 -4.465197E-08 -0.3745678
vn -0.4422546 -4.465197E-08 -0.3745678
vn -0.4422546 -4.465197E-08 -0.3745678
vn -0.4422546 -4.465197E-08 -0.3745678
vn -0.4422545 -4.465198E-08 -0.374568
vn 0.4422546 4.465197E-08 0.3745678
vn 0.4422546 4.465197E-08 0.3745678
vn 0.4422546 4.465197E-08 0.3745678
vn 0.4422546 4.465197E-08 0.3745678
vn 0.4422545 4.465198E-08 0.374568
vn -0.4422546 4.465196E-08 0.3745678
vn -0.4422546 4.465196E-08 0.3745678
vn -0.4422546 4.465196E-08 0.3745678
vn -0.4422546 4.465196E-08 0.3745678
vn -0.4422545 4.465199E-08 0.374568
vn 0.2733283 0.4008801 -4.778863E-08
vn 0.2733283 0.4008801 -4.778863E-08
vn 0.2733283 0.4008801 -4.778863E-08
vn 0.2733283 0.4008801 -4.778863E-08
vn 0.2733285 0.40088 -4.778862E-08
vn 0.2733284 -0.4008801 4.778863E-08
vn 0.2733284 -0.4008801 4.778863E-08
vn 0.2733284 -0.4008801 4.778863E-08
vn 0.2733284 -0.4008801 4.778863E-08
vn 0.2733285 -0.40088 4.778863E-08
vn -0.2733284 0.4008801 -4.778863E-08
vn -0.2733284 0.4008801 -4.778863E-08
vn -0.2733284 0.4008801 -4.778863E-08
vn -0.2733284 0.4008801 -4.778863E-08
vn -0.2733285 0.40088 -4.778863E-08
vn -0.2733283 -0.4008801 4.778863E-08
vn -0.2733283 -0.4008801 4.778863E-08
vn -0.2733283 -0.4008801 4.778863E-08
vn -0.2733283 -0.4008801 4.778863E-08
vn -0.2733285 -0.40088 4.778862E-08
vn 0 0.2477574 -0.6060635
vn 0 0.2477574 -0.6060635
vn 0 0.2477574 -0.6060635
vn 0 0.2477574 -0.6060635
vn 0 0.2477576 -0.6060634
vn 0 0.2477576 0.6060634
vn 0 0.2477576 0.6060634
vn 0 0.2477576 0.6060634
vn 0 0.2477576 0.6060634
vn 0 0.2477577 0.6060634
vn 0 -0.2477576 -0.6060634
vn 0 -0.2477576 -0.6060634
vn 0 -0.2477576 -0.6060634
vn 0 -0.2477576 -0.6060634
vn 0 -0.2477577 -0.6060634
vn 0 -0.2477574 0.6060635
vn 0 -0.2477574 0.6060635
vn 0 -0.2477574 0.6060635
vn 0 -0.2477574 0.6060635
vn 0 -0.2477576 0.6060634
vn 0.3001652 0.2720837 -0.4113449
vn 0.3001652 0.2720837 -0.4113449
vn 0.3001652 0.2720837 -0.4113449
vn 0.3001652 0.2720837 -0.4113449
vn 0.3001652 0.2720836 -0.4113449
vn 0.3001652 0.2720836 -0.4113449
vn 0.3001652 -0.2720837 -0.4113449
vn 0.3001652 -0.2720837 -0.4113449
vn 0.3001652 -0.2720837 -0.4113449
vn 0.3001652 -0.2720837 -0.4113449
vn 0.3001652 -0.2720837 -0.4113449
vn 0.3001652 -0.2720837 -0.4113449
vn 0.3001652 0.2720837 0.4113449
vn 0.3001652 0.2720837 0.4113449
vn 0.3001652 0.2720837 0.4113449
vn 0.3001652 0.2720837 0.4113449
vn 0.3001652 0.2720837 0.4113449
vn 0.3001652 0.2720837 0.4113449
vn 0.3001652 -0.2720837 0.4113449
vn 0.3001652 -0.2720837 0.4113449
vn 0.3001652 -0.2720837 0.4113449
vn 0.3001652 -0.2720837 0.4113449
vn 0.3001652 -0.2720836 0.4113449
vn 0.3001652 -0.2720836 0.4113449
vn -0.3001652 0.2720836 -0.411345
vn -0.3001652 0.2720836 -0.411345
vn -0.3001652 0.2720836 -0.411345
vn -0.3001652 0.2720836 -0.411345
vn -0.3001652 0.2720836 -0.4113449
vn -0.3001652 0.2720836 -0.4113449
vn -0.3001652 -0.2720838 -0.4113448
vn -0.3001652 -0.2720838 -0.4113448
vn -0.3001652 -0.2720838 -0.4113448
vn -0.3001652 -0.2720838 -0.4113448
vn -0.3001652 -0.2720837 -0.4113449
vn -0.3001652 -0.2720837 -0.4113449
vn -0.3001652 0.2720838 0.4113448
vn -0.3001652 0.2720838 0.4113448
vn -0.3001652 0.2720838 0.4113448
vn -0.3001652 0.2720838 0.4113448
vn -0.3001652 0.2720837 0.4113449
vn -0.3001652 0.2720837 0.4113449
vn -0.3001652 -0.2720836 0.411345
vn -0.3001652 -0.2720836 0.411345
vn -0.3001652 -0.2720836 0.411345
vn -0.3001652 -0.2720836 0.411345
vn -0.3001652 -0.2720836 0.4113449
vn -0.3001652 -0.2720836 0.4113449
vn 0.1855123 -1.432215E-07 -0.66557
vn 0.1855123 -1.432215E-07 -0.66557
vn 0.1855123 -1.432215E-07 -0.66557
vn 0.1855123 -1.432215E-07 -0.66557
vn 0.1855123 -1.546274E-08 -0.66557
vn 0.1855123 -1.546274E-08 -0.66557
vn -0.1855123 -1.546276E-08 -0.66557
vn -0.1855123 -1.546276E-08 -0.66557
vn -0.1855123 -1.546276E-08 -0.66557
vn -0.1855123 -1.546276E-08 -0.66557
vn -0.1855123 -1.432215E-07 -0.66557
vn -0.1855123 -1.432215E-07 -0.66557
vn 0.1855123 1.432215E-07 0.66557
vn 0.1855123 1.432215E-07 0.66557
vn 0.1855123 1.432215E-07 0.66557
vn 0.1855123 1.432215E-07 0.66557
vn 0.1855123 1.546274E-08 0.66557
vn 0.1855123 1.546274E-08 0.66557
vn -0.1855123 1.546276E-08 0.66557
vn -0.1855123 1.546276E-08 0.66557
vn -0.1855123 1.546276E-08 0.66557
vn -0.1855123 1.546276E-08 0.66557
vn -0.1855123 1.432215E-07 0.66557
vn -0.1855123 1.432215E-07 0.66557
vn 0.4856775 0.168157 7.652903E-08
vn 0.4856775 0.168157 7.652903E-08
vn 0.4856775 0.168157 7.652903E-08
vn 0.4856775 0.168157 7.652903E-08
vn 0.4856775 0.168157 -1.166208E-07
vn 0.4856775 0.168157 -1.166208E-07
vn 0.4856775 -0.168157 -7.652903E-08
vn 0.4856775 -0.168157 -7.652903E-08
vn 0.4856775 -0.168157 -7.652903E-08
vn 0.4856775 -0.168157 -7.652903E-08
vn 0.4856775 -0.168157 1.166208E-07
vn 0.4856775 -0.168157 1.166208E-07
vn -0.4856775 0.168157 -1.166208E-07
vn -0.4856775 0.168157 -1.166208E-07
vn -0.4856775 0.168157 -1.166208E-07
vn -0.4856775 0.168157 -1.166208E-07
vn -0.4856775 0.168157 7.652906E-08
vn -0.4856775 0.168157 7.652906E-08
vn -0.4856775 -0.168157 1.166208E-07
vn -0.4856775 -0.168157 1.166208E-07
vn -0.4856775 -0.168157 1.166208E-07
vn -0.4856775 -0.168157 1.166208E-07
vn -0.4856775 -0.168157 -7.652906E-08
vn -0.4856775 -0.168157 -7.652906E-08
vn -7.04723E-08 0.4402406 -0.2542252
vn -7.04723E-08 0.4402406 -0.2542252
vn -7.04723E-08 0.4402406 -0.2542252
vn -7.04723E-08 0.4402406 -0.2542252
vn 7.047233E-08 0.4402406 -0.2542252
vn 7.047233E-08 0.4402406 -0.2542252
vn 7.04723E-08 0.4402407 0.2542251
vn 7.04723E-08 0.4402407 0.2542251
vn 7.04723E-08 0.4402407 0.2542251
vn 7.04723E-08 0.4402407 0.2542251
vn -7.047233E-08 0.4402407 0.2542251
vn -7.047233E-08 0.4402407 0.2542251
vn 7.04723E-08 -0.4402407 -0.2542251
vn 7.04723E-08 -0.4402407 -0.2542251
vn 7.04723E-08 -0.4402407 -0.2542251
vn 7.04723E-08 -0.4402407 -0.2542251
vn -7.047233E-08 -0.4402407 -0.2542251
vn -7.047233E-08 -0.4402407 -0.2542251
vn -7.04723E-08 -0.4402406 0.2542252
vn -7.04723E-08 -0.4402406 0.2542252
vn -7.04723E-08 -0.4402406 0.2542252
vn -7.04723E-08 -0.4402406 0.2542252
vn 7.047233E-08 -0.4402406 0.2542252
vn 7.047233E-08 -0.4402406 0.2542252
vt 0.6848782 0.2088365
vt 0.616295 0.2130472
vt 0.5880371 0.3200678
vt 0.6990071 0.3132547
vt 0.639156 0.3819994
vt 0.5968572 0.5080823
vt 0.626156 0.5962598
vt 0.6882121 0.6443241
vt 0.6408055 0.5016498
vt 0.6972659 0.5858519
vt 0.1004088 0.2516677
vt 0.1568692 0.3358698
vt 0.2335747 0.289324
vt 0.1422198 0.1530822
vt 0.2245209 0.1763551
vt 0.9607257 0.5984389
vt 0.8971786 0.6335524
vt 0.8971786 0.747182
vt 1 0.6903671
vt 0.9607258 0.7822954
vt 0.1715187 0.5186573
vt 0.2042759 0.478544
vt 0.1422198 0.4304797
vt 0.08921761 0.4953844
vt 0.07110989 0.4408877
vt 0.3395791 0.1595147
vt 0.348633 0.1010424
vt 0.2921725 0.01684039
vt 0.277523 0.1114504
vt 0.2482242 0.02327285
vt 0.5731539 0.6611645
vt 0.4908527 0.6378915
vt 0.4490417 0.736477
vt 0.5822077 0.7741334
vt 0.5055022 0.8206791
vt 0.09362845 0.7593287
vt 0.1430516 0.8512569
vt 0.2230198 0.8161434
vt 0.1430515 0.6674004
vt 0.2230198 0.7025138
vt 0.5618407 0.1264657
vt 0.5759696 0.03567354
vt 0.5019896 0
vt 0.4791286 0.1469048
vt 0.4421386 0.06874471
vt 0.7365402 0.4848094
vt 0.6972659 0.5767376
vt 0.7515416 0.6335524
vt 0.8150887 0.4848093
vt 0.8243601 0.5767376
vt 0.4737318 0.4228777
vt 0.505325 0.3405069
vt 0.4508707 0.2539254
vt 0.3997518 0.3872041
vt 0.3856229 0.2827859
vt 0.6972659 0.8039967
vt 0.7365402 0.895925
vt 0.8150887 0.895925
vt 0.7515416 0.747182
vt 0.8243601 0.8039967
vt 0.6848782 0.2088365
vt 0.6990071 0.1180443
vt 0.6445528 0.03146284
vt 0.616295 0.2130472
vt 0.5759696 0.03567354
vt 0.5618407 0.1264657
vt 0.5880371 0.3200678
vt 0.505325 0.3405069
vt 0.4737318 0.4228777
vt 0.639156 0.3819994
vt 0.5248507 0.4848093
vt 0.6075628 0.4643702
vt 0.1004088 0.2516677
vt 0.02929888 0.2620756
vt 0.01464945 0.3566857
vt 0.1568692 0.3358698
vt 0.07110989 0.4408877
vt 0.1422198 0.4304797
vt 0.2245209 0.1763551
vt 0.277523 0.1114504
vt 0.2482242 0.02327285
vt 0.1422198 0.1530822
vt 0.1659231 0
vt 0.1129209 0.06490466
vt 0.5968572 0.5080823
vt 0.5145561 0.4848093
vt 0.4615539 0.549714
vt 0.626156 0.5962598
vt 0.4908527 0.6378915
vt 0.5731539 0.6611645
vt 0.1209489 0.9431852
vt 0.1430516 0.8512569
vt 0.09362845 0.7593287
vt 0.04942315 0.9431852
vt 0.02210269 0.7593287
vt 1.722824E-08 0.851257
vt 0.6442637 0.8221977
vt 0.5822077 0.7741334
vt 0.5055022 0.8206791
vt 0.6296142 0.9168077
vt 0.4908527 0.9152891
vt 0.5529087 0.9633534
vt 0.3387509 0.8161434
vt 0.3387509 0.7025138
vt 0.2808853 0.645699
vt 0.2808854 0.8729582
vt 0.2230198 0.7025138
vt 0.2230198 0.8161434
vt 0.616295 0.2130472
vt 0.5618407 0.1264657
vt 0.4791286 0.1469048
vt 0.5880371 0.3200678
vt 0.4508707 0.2539254
vt 0.505325 0.3405069
vt 0.348633 0.2046258
vt 0.3856229 0.2827859
vt 0.4508707 0.2539254
vt 0.3768908 0.09760521
vt 0.4791286 0.1469048
vt 0.4421386 0.06874471
vt 0.1422198 0.1530822
vt 0.1129209 0.06490466
vt 0.04181099 0.07531262
vt 0.1004088 0.2516677
vt 0 0.1738981
vt 0.02929888 0.2620756
vt 0.8971786 0.6335524
vt 0.8243601 0.5767376
vt 0.7515416 0.6335524
vt 0.8971786 0.747182
vt 0.7515416 0.747182
vt 0.8243601 0.8039967
vt 0.2042759 0.478544
vt 0.2809813 0.4319983
vt 0.2956308 0.3373882
vt 0.1422198 0.4304797
vt 0.2335747 0.289324
vt 0.1568692 0.3358698
vt 0.277523 0.1114504
vt 0.2245209 0.1763551
vt 0.2335747 0.289324
vt 0.3395791 0.1595147
vt 0.2956308 0.3373882
vt 0.348633 0.2724836
vt 0.5822077 0.7741334
vt 0.6442637 0.8221977
vt 0.6972659 0.757293
vt 0.5731539 0.6611645
vt 0.6882121 0.6443241
vt 0.626156 0.5962598
vt 0.1430516 0.8512569
vt 0.1209489 0.9431852
vt 0.1788145 0.9999999
vt 0.2230198 0.8161434
vt 0.2587827 0.9648864
vt 0.2808854 0.8729582
vt 0.390444 0.560122
vt 0.348633 0.6587074
vt 0.3779318 0.7468849
vt 0.4615539 0.549714
vt 0.4490417 0.736477
vt 0.4908527 0.6378915
vt 0.4908527 0.9152891
vt 0.5055022 0.8206791
vt 0.4490417 0.736477
vt 0.4197428 0.925697
vt 0.3779318 0.7468849
vt 0.3632824 0.841495
vt 0.02210269 0.7593287
vt 0.09362845 0.7593287
vt 0.1430515 0.6674004
vt 0 0.6674004
vt 0.1209489 0.5754721
vt 0.04942308 0.5754721
vt 0.2587827 0.5537708
vt 0.1788144 0.5186573
vt 0.1209489 0.5754721
vt 0.2808853 0.645699
vt 0.1430515 0.6674004
vt 0.2230198 0.7025138
usemtl 3xR67Md0FcS2xd73clkEncRxdPAYevXr-409131256-1-0-lowpoly
f 3/3/3 2/2/2 1/1/1
f 4/4/4 3/3/3 1/1/1
f 5/5/5 3/3/3 4/4/4
f 8/8/8 7/7/7 6/6/6
f 9/9/9 8/8/8 6/6/6
f 10/10/10 8/8/8 9/9/9
f 13/13/13 12/12/12 11/11/11
f 14/14/14 13/13/13 11/11/11
f 15/15/15 13/13/13 14/14/14
f 18/18/18 17/17/17 16/16/16
f 19/19/19 18/18/18 16/16/16
f 20/20/20 18/18/18 19/19/19
f 23/23/23 22/22/22 21/21/21
f 24/24/24 23/23/23 21/21/21
f 25/25/25 23/23/23 24/24/24
f 28/28/28 27/27/27 26/26/26
f 29/29/29 28/28/28 26/26/26
f 30/30/30 28/28/28 29/29/29
f 33/33/33 32/32/32 31/31/31
f 34/34/34 33/33/33 31/31/31
f 35/35/35 33/33/33 34/34/34
f 38/38/38 37/37/37 36/36/36
f 39/39/39 38/38/38 36/36/36
f 40/40/40 38/38/38 39/39/39
f 43/43/43 42/42/42 41/41/41
f 44/44/44 43/43/43 41/41/41
f 45/45/45 43/43/43 44/44/44
f 48/48/48 47/47/47 46/46/46
f 49/49/49 48/48/48 46/46/46
f 50/50/50 48/48/48 49/49/49
f 53/53/53 52/52/52 51/51/51
f 54/54/54 53/53/53 51/51/51
f 55/55/55 53/53/53 54/54/54
f 58/58/58 57/57/57 56/56/56
f 59/59/59 58/58/58 56/56/56
f 60/60/60 58/58/58 59/59/59
f 63/63/63 62/62/62 61/61/61
f 64/64/64 63/63/63 61/61/61
f 65/65/65 63/63/63 64/64/64
f 66/66/66 65/65/65 64/64/64
f 69/69/69 68/68/68 67/67/67
f 70/70/70 69/69/69 67/67/67
f 71/71/71 69/69/69 70/70/70
f 72/72/72 71/71/71 70/70/70
f 75/75/75 74/74/74 73/73/73
f 76/76/76 75/75/75 73/73/73
f 77/77/77 75/75/75 76/76/76
f 78/78/78 77/77/77 76/76/76
f 81/81/81 80/80/80 79/79/79
f 82/82/82 81/81/81 79/79/79
f 83/83/83 81/81/81 82/82/82
f 84/84/84 83/83/83 82/82/82
f 87/87/87 86/86/86 85/85/85
f 88/88/88 87/87/87 85/85/85
f 89/89/89 87/87/87 88/88/88
f 90/90/90 89/89/89 88/88/88
f 93/93/93 92/92/92 91/91/91
f 94/94/94 93/93/93 91/91/91
f 95/95/95 93/93/93 94/94/94
f 96/96/96 95/95/95 94/94/94
f 99/99/99 98/98/98 97/97/97
f 100/100/100 99/99/99 97/97/97
f 101/101/101 99/99/99 100/100/100
f 102/102/102 101/101/101 100/100/100
f 105/105/105 104/104/104 103/103/103
f 106/106/106 105/105/105 103/103/103
f 107/107/107 105/105/105 106/106/106
f 108/108/108 107/107/107 106/106/106
f 111/111/111 110/110/110 109/109/109
f 112/112/112 111/111/111 109/109/109
f 113/113/113 111/111/111 112/112/112
f 114/114/114 113/113/113 112/112/112
f 117/117/117 116/116/116 115/115/115
f 118/118/118 117/117/117 115/115/115
f 119/119/119 117/117/117 118/118/118
f 120/120/120 119/119/119 118/118/118
f 123/123/123 122/122/122 121/121/121
f 124/124/124 123/123/123 121/121/121
f 125/125/125 123/123/123 124/124/124
f 126/126/126 125/125/125 124/124/124
f 129/129/129 128/128/128 127/127/127
f 130/130/130 129/129/129 127/127/127
f 131/131/131 129/129/129 130/130/130
f 132/132/132 131/131/131 130/130/130
f 135/135/135 134/134/134 133/133/133
f 136/136/136 135/135/135 133/133/133
f 137/137/137 135/135/135 136/136/136
f 138/138/138 137/137/137 136/136/136
f 141/141/141 140/140/140 139/139/139
f 142/142/142 141/141/141 139/139/139
f 143/143/143 141/141/141 142/142/142
f 144/144/144 143/143/143 142/142/142
f 147/147/147 146/146/146 145/145/145
f 148/148/148 147/147/147 145/145/145
f 149/149/149 147/147/147 148/148/148
f 150/150/150 149/149/149 148/148/148
f 153/153/153 152/152/152 151/151/151
f 154/154/154 153/153/153 151/151/151
f 155/155/155 153/153/153 154/154/154
f 156/156/156 155/155/155 154/154/154
f 159/159/159 158/158/158 157/157/157
f 160/160/160 159/159/159 157/157/157
f 161/161/161 159/159/159 160/160/160
f 162/162/162 161/161/161 160/160/160
f 165/165/165 164/164/164 163/163/163
f 166/166/166 165/165/165 163/163/163
f 167/167/167 165/165/165 166/166/166
f 168/168/168 167/167/167 166/166/166
f 171/171/171 170/170/170 169/169/169
f 172/172/172 171/171/171 169/169/169
f 173/173/173 171/171/171 172/172/172
f 174/174/174 173/173/173 172/172/172
f 177/177/177 176/176/176 175/175/175
f 178/178/178 177/177/177 175/175/175
f 179/179/179 177/177/177 178/178/178
f 180/180/180 179/179/179 178/178/178
