# Export of Creator
# Blocksmith Builder 6.4.0.08
mtllib stump.mtl
v -0.00334048 0.00267306 -0.2183196
v 0.125228 0.00267306 -0.1927457
v 0.125228 0.504721 -0.1927458
v -0.00334048 0.504721 -0.2183197
v 0.125228 0.00267306 -0.1927457
v 0.2342231 0.00267309 -0.1199176
v 0.2342231 0.504721 -0.1199176
v 0.125228 0.504721 -0.1927458
v 0.2342231 0.00267309 -0.1199176
v 0.3070512 0.00267309 -0.01092243
v 0.3070512 0.504721 -0.01092249
v 0.2342231 0.504721 -0.1199176
v 0.3070512 0.00267309 -0.01092243
v 0.3326251 0.002673119 0.1176461
v 0.3326251 0.504721 0.117646
v 0.3070512 0.504721 -0.01092249
v 0.3326251 0.002673119 0.1176461
v 0.3070512 0.002673119 0.2462146
v 0.3070512 0.504721 0.2462145
v 0.3326251 0.504721 0.117646
v 0.3070512 0.002673119 0.2462146
v 0.2342231 0.002673119 0.3552097
v 0.2342231 0.504721 0.3552096
v 0.3070512 0.504721 0.2462145
v 0.2342231 0.002673119 0.3552097
v 0.125228 0.002673149 0.4280379
v 0.125228 0.504721 0.4280378
v 0.2342231 0.504721 0.3552096
v 0.125228 0.002673149 0.4280379
v -0.00334043 0.002673149 0.4536118
v -0.00334043 0.504721 0.4536117
v 0.125228 0.504721 0.4280378
v -0.00334043 0.002673149 0.4536118
v -0.1319089 0.002673149 0.4280379
v -0.1319089 0.504721 0.4280379
v -0.00334043 0.504721 0.4536117
v -0.1319089 0.002673149 0.4280379
v -0.2409039 0.002673119 0.3552098
v -0.2409039 0.504721 0.3552097
v -0.1319089 0.504721 0.4280379
v -0.2409039 0.002673119 0.3552098
v -0.3137322 0.002673119 0.2462146
v -0.3137322 0.504721 0.2462146
v -0.2409039 0.504721 0.3552097
v -0.3137322 0.002673119 0.2462146
v -0.3393061 0.002673119 0.1176461
v -0.3393061 0.504721 0.117646
v -0.3137322 0.504721 0.2462146
v -0.3393061 0.002673119 0.1176461
v -0.3137322 0.00267309 -0.01092249
v -0.3137322 0.504721 -0.01092255
v -0.3393061 0.504721 0.117646
v -0.3137322 0.00267309 -0.01092249
v -0.2409039 0.00267309 -0.1199176
v -0.2409039 0.504721 -0.1199177
v -0.3137322 0.504721 -0.01092255
v 0.3070512 0.504721 -0.01092249
v 0.3326251 0.504721 0.117646
v 0.3070512 0.504721 0.2462145
v 0.2342231 0.504721 -0.1199176
v 0.2342231 0.504721 0.3552096
v 0.125228 0.504721 -0.1927458
v 0.125228 0.504721 0.4280378
v -0.00334043 0.504721 0.4536117
v -0.00334048 0.504721 -0.2183197
v -0.1319089 0.504721 0.4280379
v -0.1319088 0.504721 -0.1927459
v -0.2409039 0.504721 -0.1199177
v -0.2409039 0.504721 0.3552097
v -0.3137322 0.504721 -0.01092255
v -0.3137322 0.504721 0.2462146
v -0.3393061 0.504721 0.117646
v -0.2409039 0.00267309 -0.1199176
v -0.1319088 0.00267306 -0.1927458
v -0.1319088 0.504721 -0.1927459
v -0.2409039 0.504721 -0.1199177
v -0.1319088 0.00267306 -0.1927458
v -0.00334048 0.00267306 -0.2183196
v -0.00334048 0.504721 -0.2183197
v -0.1319088 0.504721 -0.1927459
v 0.3070512 0.002673119 0.2462146
v 0.3326251 0.002673119 0.1176461
v 0.3070512 0.00267309 -0.01092243
v 0.2342231 0.002673119 0.3552097
v 0.2342231 0.00267309 -0.1199176
v 0.125228 0.002673149 0.4280379
v 0.125228 0.00267306 -0.1927457
v -0.00334043 0.002673149 0.4536118
v -0.00334048 0.00267306 -0.2183196
v -0.1319089 0.002673149 0.4280379
v -0.1319088 0.00267306 -0.1927458
v -0.2409039 0.00267309 -0.1199176
v -0.2409039 0.002673119 0.3552098
v -0.3137322 0.00267309 -0.01092249
v -0.3137322 0.002673119 0.2462146
v -0.3393061 0.002673119 0.1176461
vn 0.1219728 -7.309898E-08 -0.6131986
vn 0.1219728 -7.309898E-08 -0.6131986
vn 0.1219728 -7.309898E-08 -0.6131986
vn 0.1219728 -7.309898E-08 -0.6131986
vn 0.347349 -6.197033E-08 -0.5198447
vn 0.347349 -6.197033E-08 -0.5198447
vn 0.347349 -6.197033E-08 -0.5198447
vn 0.347349 -6.197033E-08 -0.5198447
vn 0.5198445 -4.140725E-08 -0.3473491
vn 0.5198445 -4.140725E-08 -0.3473491
vn 0.5198445 -4.140725E-08 -0.3473491
vn 0.5198445 -4.140725E-08 -0.3473491
vn 0.6131984 -1.45403E-08 -0.1219728
vn 0.6131984 -1.45403E-08 -0.1219728
vn 0.6131984 -1.45403E-08 -0.1219728
vn 0.6131984 -1.45403E-08 -0.1219728
vn 0.6131984 1.45403E-08 0.1219728
vn 0.6131984 1.45403E-08 0.1219728
vn 0.6131984 1.45403E-08 0.1219728
vn 0.6131984 1.45403E-08 0.1219728
vn 0.5198445 4.140725E-08 0.3473492
vn 0.5198445 4.140725E-08 0.3473492
vn 0.5198445 4.140725E-08 0.3473492
vn 0.5198445 4.140725E-08 0.3473492
vn 0.347349 6.197033E-08 0.5198447
vn 0.347349 6.197033E-08 0.5198447
vn 0.347349 6.197033E-08 0.5198447
vn 0.347349 6.197033E-08 0.5198447
vn 0.1219728 7.309898E-08 0.6131986
vn 0.1219728 7.309898E-08 0.6131986
vn 0.1219728 7.309898E-08 0.6131986
vn 0.1219728 7.309898E-08 0.6131986
vn -0.1219726 7.3099E-08 0.6131988
vn -0.1219726 7.3099E-08 0.6131988
vn -0.1219726 7.3099E-08 0.6131988
vn -0.1219726 7.3099E-08 0.6131988
vn -0.3473488 6.197034E-08 0.5198448
vn -0.3473488 6.197034E-08 0.5198448
vn -0.3473488 6.197034E-08 0.5198448
vn -0.3473488 6.197034E-08 0.5198448
vn -0.5198445 4.140726E-08 0.3473492
vn -0.5198445 4.140726E-08 0.3473492
vn -0.5198445 4.140726E-08 0.3473492
vn -0.5198445 4.140726E-08 0.3473492
vn -0.6131984 1.454029E-08 0.1219728
vn -0.6131984 1.454029E-08 0.1219728
vn -0.6131984 1.454029E-08 0.1219728
vn -0.6131984 1.454029E-08 0.1219728
vn -0.6131984 -1.45403E-08 -0.1219729
vn -0.6131984 -1.45403E-08 -0.1219729
vn -0.6131984 -1.45403E-08 -0.1219729
vn -0.6131984 -1.45403E-08 -0.1219729
vn -0.5198445 -4.140727E-08 -0.3473493
vn -0.5198445 -4.140727E-08 -0.3473493
vn -0.5198445 -4.140727E-08 -0.3473493
vn -0.5198445 -4.140727E-08 -0.3473493
vn 0 0.4671405 -5.568749E-08
vn 0 0.4671405 -5.568749E-08
vn 0 0.4671405 -5.568749E-08
vn 0 0.4671405 -5.568749E-08
vn 0 0.4671405 -5.568749E-08
vn 0 0.4671405 -5.568749E-08
vn 0 0.4671405 -5.568749E-08
vn 0 0.4671405 -5.568749E-08
vn 0 0.4671405 -5.568749E-08
vn 0 0.4671405 -5.568749E-08
vn 0 0.4671405 -5.568749E-08
vn 0 0.4671405 -5.568749E-08
vn 0 0.4671405 -5.568749E-08
vn 0 0.4671405 -5.568749E-08
vn 0 0.4671405 -5.568749E-08
vn 0 0.4671405 -5.568749E-08
vn -0.3473488 -6.197034E-08 -0.5198448
vn -0.3473488 -6.197034E-08 -0.5198448
vn -0.3473488 -6.197034E-08 -0.5198448
vn -0.3473488 -6.197034E-08 -0.5198448
vn -0.1219726 -7.3099E-08 -0.6131988
vn -0.1219726 -7.3099E-08 -0.6131988
vn -0.1219726 -7.3099E-08 -0.6131988
vn -0.1219726 -7.3099E-08 -0.6131988
vn 0 -0.4671405 5.568749E-08
vn 0 -0.4671405 5.568749E-08
vn 0 -0.4671405 5.568749E-08
vn 0 -0.4671405 5.568749E-08
vn 0 -0.4671405 5.568749E-08
vn 0 -0.4671405 5.568749E-08
vn 0 -0.4671405 5.568749E-08
vn 0 -0.4671405 5.568749E-08
vn 0 -0.4671405 5.568749E-08
vn 0 -0.4671405 5.568749E-08
vn 0 -0.4671405 5.568749E-08
vn 0 -0.4671405 5.568749E-08
vn 0 -0.4671405 5.568749E-08
vn 0 -0.4671405 5.568749E-08
vn 0 -0.4671405 5.568749E-08
vn 0 -0.4671405 5.568749E-08
vt 1 0.5
vt 0.9375 0.5
vt 0.9375 1
vt 1 1
vt 0.9375 0.5
vt 0.875 0.5
vt 0.875 1
vt 0.9375 1
vt 0.875 0.5
vt 0.8125 0.5
vt 0.8125 1
vt 0.875 1
vt 0.8125 0.5
vt 0.75 0.5
vt 0.75 1
vt 0.8125 1
vt 0.75 0.5
vt 0.6875 0.5
vt 0.6875 1
vt 0.75 1
vt 0.6875 0.5
vt 0.625 0.5
vt 0.625 1
vt 0.6875 1
vt 0.625 0.5
vt 0.5625 0.5
vt 0.5625 1
vt 0.625 1
vt 0.5625 0.5
vt 0.5 0.5
vt 0.5 1
vt 0.5625 1
vt 0.5 0.5
vt 0.4375 0.5
vt 0.4375 1
vt 0.5 1
vt 0.4375 0.5
vt 0.375 0.5
vt 0.375 1
vt 0.4375 1
vt 0.375 0.5
vt 0.3125 0.5
vt 0.3125 1
vt 0.375 1
vt 0.3125 0.5
vt 0.25 0.5
vt 0.25 1
vt 0.3125 1
vt 0.25 0.5
vt 0.1875 0.5
vt 0.1875 1
vt 0.25 1
vt 0.1875 0.5
vt 0.125 0.5
vt 0.125 1
vt 0.1875 1
vt 0.4717311 0.341844
vt 0.49 0.25
vt 0.4717311 0.1581559
vt 0.4197056 0.4197056
vt 0.4197056 0.08029439
vt 0.341844 0.4717311
vt 0.341844 0.02826892
vt 0.25 0.01000001
vt 0.25 0.49
vt 0.158156 0.02826889
vt 0.1581561 0.4717311
vt 0.08029443 0.4197057
vt 0.08029442 0.08029433
vt 0.02826893 0.3418441
vt 0.02826892 0.1581559
vt 0.01000001 0.25
vt 0.125 0.5
vt 0.0625 0.5
vt 0.0625 1
vt 0.125 1
vt 0.0625 0.5
vt 0 0.5
vt 0 1
vt 0.0625 1
vt 0.9717311 0.1581559
vt 0.99 0.25
vt 0.9717311 0.341844
vt 0.9197056 0.08029439
vt 0.9197056 0.4197056
vt 0.841844 0.02826892
vt 0.841844 0.4717311
vt 0.7500001 0.01000001
vt 0.75 0.49
vt 0.658156 0.02826889
vt 0.6581561 0.4717311
vt 0.5802944 0.4197057
vt 0.5802944 0.08029433
vt 0.5282689 0.3418441
vt 0.5282689 0.1581559
vt 0.51 0.25
usemtl 3xR67Md0FcS2xd73clkEncRxdPAYevXr-1327523256-1-0-lowpoly
f 3/3/3 2/2/2 1/1/1
f 4/4/4 3/3/3 1/1/1
f 7/7/7 6/6/6 5/5/5
f 8/8/8 7/7/7 5/5/5
f 11/11/11 10/10/10 9/9/9
f 12/12/12 11/11/11 9/9/9
f 15/15/15 14/14/14 13/13/13
f 16/16/16 15/15/15 13/13/13
f 19/19/19 18/18/18 17/17/17
f 20/20/20 19/19/19 17/17/17
f 23/23/23 22/22/22 21/21/21
f 24/24/24 23/23/23 21/21/21
f 27/27/27 26/26/26 25/25/25
f 28/28/28 27/27/27 25/25/25
f 31/31/31 30/30/30 29/29/29
f 32/32/32 31/31/31 29/29/29
f 35/35/35 34/34/34 33/33/33
f 36/36/36 35/35/35 33/33/33
f 39/39/39 38/38/38 37/37/37
f 40/40/40 39/39/39 37/37/37
f 43/43/43 42/42/42 41/41/41
f 44/44/44 43/43/43 41/41/41
f 47/47/47 46/46/46 45/45/45
f 48/48/48 47/47/47 45/45/45
f 51/51/51 50/50/50 49/49/49
f 52/52/52 51/51/51 49/49/49
f 55/55/55 54/54/54 53/53/53
f 56/56/56 55/55/55 53/53/53
f 59/59/59 58/58/58 57/57/57
f 57/57/57 60/60/60 59/59/59
f 60/60/60 61/61/61 59/59/59
f 60/60/60 62/62/62 61/61/61
f 62/62/62 63/63/63 61/61/61
f 62/62/62 64/64/64 63/63/63
f 62/62/62 65/65/65 64/64/64
f 65/65/65 66/66/66 64/64/64
f 65/65/65 67/67/67 66/66/66
f 67/67/67 68/68/68 66/66/66
f 68/68/68 69/69/69 66/66/66
f 68/68/68 70/70/70 69/69/69
f 70/70/70 71/71/71 69/69/69
f 70/70/70 72/72/72 71/71/71
f 75/75/75 74/74/74 73/73/73
f 76/76/76 75/75/75 73/73/73
f 79/79/79 78/78/78 77/77/77
f 80/80/80 79/79/79 77/77/77
f 83/83/83 82/82/82 81/81/81
f 81/81/81 84/84/84 83/83/83
f 84/84/84 85/85/85 83/83/83
f 84/84/84 86/86/86 85/85/85
f 86/86/86 87/87/87 85/85/85
f 86/86/86 88/88/88 87/87/87
f 88/88/88 89/89/89 87/87/87
f 88/88/88 90/90/90 89/89/89
f 90/90/90 91/91/91 89/89/89
f 90/90/90 92/92/92 91/91/91
f 90/90/90 93/93/93 92/92/92
f 93/93/93 94/94/94 92/92/92
f 93/93/93 95/95/95 94/94/94
f 95/95/95 96/96/96 94/94/94
v 0.2455838 0.5070131 0.2469529
v 0.2802314 0.5070131 0.117646
v 0.2455838 0.5070131 -0.01166079
v 0.1509247 0.5070131 -0.10632
v 0.1509247 0.5070131 0.341612
v 0.02161791 0.5070132 0.3762597
v 0.02161787 0.5070131 -0.1409676
v -0.1076889 0.5070131 0.3416121
v -0.1076891 0.5070131 -0.1063199
v -0.202348 0.5070131 0.2469529
v -0.2023481 0.5070131 -0.01166067
v -0.2369957 0.5070131 0.1176461
v 0.2455838 0.5070131 -0.01166079
v 0.2802314 0.5070131 0.117646
v 0.2455838 0.5070131 0.2469529
v 0.1509247 0.5070131 -0.10632
v 0.1509247 0.5070131 0.341612
v 0.02161791 0.5070132 0.3762597
v 0.02161787 0.5070131 -0.1409676
v -0.1076889 0.5070131 0.3416121
v -0.1076891 0.5070131 -0.1063199
v -0.202348 0.5070131 0.2469529
v -0.2023481 0.5070131 -0.01166067
v -0.2369957 0.5070131 0.1176461
vn 0 -0.001277727 1.523169E-10
vn 0 -0.001277727 1.523169E-10
vn 0 -0.001277727 1.523169E-10
vn 0 -0.001277727 1.523169E-10
vn 0 -0.001277727 1.523169E-10
vn 0 -0.001277727 1.523169E-10
vn 0 -0.001277727 1.523169E-10
vn 0 -0.001277727 1.523169E-10
vn 0 -0.001277727 1.523169E-10
vn 0 -0.001277727 1.523169E-10
vn 0 -0.001277727 1.523169E-10
vn 0 -0.001277727 1.523169E-10
vn 0 0.001277727 -1.523169E-10
vn 0 0.001277727 -1.523169E-10
vn 0 0.001277727 -1.523169E-10
vn 0 0.001277727 -1.523169E-10
vn 0 0.001277727 -1.523169E-10
vn 0 0.001277727 -1.523169E-10
vn 0 0.001277727 -1.523169E-10
vn 0 0.001277727 -1.523169E-10
vn 0 0.001277727 -1.523169E-10
vn 0 0.001277727 -1.523169E-10
vn 0 0.001277727 -1.523169E-10
vn 0 0.001277727 -1.523169E-10
vt 0.9330127 0.2500001
vt 1 0.5000001
vt 0.9330127 0.7499999
vt 0.7499999 0.933013
vt 0.7499999 0.06698733
vt 0.5000001 0
vt 0.5000001 1
vt 0.2500001 0.06698733
vt 0.2499997 0.9330124
vt 0.06698745 0.25
vt 0.0669872 0.7499999
vt 0 0.4999998
vt 0.9330127 0.7499999
vt 1 0.5000001
vt 0.9330127 0.2500001
vt 0.7499999 0.933013
vt 0.7499999 0.06698733
vt 0.5000001 0
vt 0.5000001 1
vt 0.2500001 0.06698733
vt 0.2499997 0.9330124
vt 0.06698745 0.25
vt 0.0669872 0.7499999
vt 0 0.4999998
usemtl 3xR67Md0FcS2xd73clkEncRxdPAYevXr-16511624256-1-0-lowpoly
f 99/99/99 98/98/98 97/97/97
f 97/97/97 100/100/100 99/99/99
f 97/97/97 101/101/101 100/100/100
f 101/101/101 102/102/102 100/100/100
f 102/102/102 103/103/103 100/100/100
f 102/102/102 104/104/104 103/103/103
f 104/104/104 105/105/105 103/103/103
f 104/104/104 106/106/106 105/105/105
f 106/106/106 107/107/107 105/105/105
f 106/106/106 108/108/108 107/107/107
f 111/111/111 110/110/110 109/109/109
f 109/109/109 112/112/112 111/111/111
f 112/112/112 113/113/113 111/111/111
f 112/112/112 114/114/114 113/113/113
f 112/112/112 115/115/115 114/114/114
f 115/115/115 116/116/116 114/114/114
f 115/115/115 117/117/117 116/116/116
f 117/117/117 118/118/118 116/116/116
f 117/117/117 119/119/119 118/118/118
f 119/119/119 120/120/120 118/118/118
v 0.08040789 0.507207 0.09756951
v 0.07675679 0.507207 0.02790286
v 0.03876156 0.507207 -0.03060471
v -0.02339705 0.507207 -0.06227612
v 0.04873651 0.507207 0.1597281
v -0.009770993 0.5072071 0.1977234
v -0.09306367 0.507207 -0.05862506
v -0.0794376 0.507207 0.2013745
v -0.1515712 0.507207 -0.02062976
v -0.1415962 0.507207 0.1697031
v -0.1832426 0.507207 0.04152889
v -0.1795915 0.507207 0.1111955
v 0.03876156 0.507207 -0.03060471
v 0.07675679 0.507207 0.02790286
v 0.08040789 0.507207 0.09756951
v -0.02339705 0.507207 -0.06227612
v 0.04873651 0.507207 0.1597281
v -0.009770993 0.5072071 0.1977234
v -0.09306367 0.507207 -0.05862506
v -0.0794376 0.507207 0.2013745
v -0.1515712 0.507207 -0.02062976
v -0.1415962 0.507207 0.1697031
v -0.1832426 0.507207 0.04152889
v -0.1795915 0.507207 0.1111955
vn 1.461418E-10 -0.002451853 5.34331E-10
vn 1.461418E-10 -0.002451853 5.34331E-10
vn 1.461418E-10 -0.002451853 5.34331E-10
vn 1.461418E-10 -0.002451853 5.34331E-10
vn 1.461418E-10 -0.002451853 5.34331E-10
vn 1.461418E-10 -0.002451853 5.34331E-10
vn 1.461418E-10 -0.002451853 5.34331E-10
vn 1.461418E-10 -0.002451853 5.34331E-10
vn 1.461418E-10 -0.002451853 5.34331E-10
vn 1.461418E-10 -0.002451853 5.34331E-10
vn 1.461418E-10 -0.002451853 5.34331E-10
vn 1.461418E-10 -0.002451853 5.34331E-10
vn -1.461418E-10 0.002451853 -5.34331E-10
vn -1.461418E-10 0.002451853 -5.34331E-10
vn -1.461418E-10 0.002451853 -5.34331E-10
vn -1.461418E-10 0.002451853 -5.34331E-10
vn -1.461418E-10 0.002451853 -5.34331E-10
vn -1.461418E-10 0.002451853 -5.34331E-10
vn -1.461418E-10 0.002451853 -5.34331E-10
vn -1.461418E-10 0.002451853 -5.34331E-10
vn -1.461418E-10 0.002451853 -5.34331E-10
vn -1.461418E-10 0.002451853 -5.34331E-10
vn -1.461418E-10 0.002451853 -5.34331E-10
vn -1.461418E-10 0.002451853 -5.34331E-10
vt 0.9330127 0.2500001
vt 1 0.5000001
vt 0.9330127 0.7499999
vt 0.7499999 0.933013
vt 0.7499999 0.06698733
vt 0.5000001 0
vt 0.5000001 1
vt 0.2500001 0.06698733
vt 0.2499997 0.9330124
vt 0.06698745 0.25
vt 0.0669872 0.7499999
vt 0 0.4999998
vt 0.9330127 0.7499999
vt 1 0.5000001
vt 0.9330127 0.2500001
vt 0.7499999 0.933013
vt 0.7499999 0.06698733
vt 0.5000001 0
vt 0.5000001 1
vt 0.2500001 0.06698733
vt 0.2499997 0.9330124
vt 0.06698745 0.25
vt 0.0669872 0.7499999
vt 0 0.4999998
usemtl 3xR67Md0FcS2xd73clkEncRxdPAYevXr-18615871256-1-0-lowpoly
f 123/123/123 122/122/122 121/121/121
f 121/121/121 124/124/124 123/123/123
f 121/121/121 125/125/125 124/124/124
f 125/125/125 126/126/126 124/124/124
f 126/126/126 127/127/127 124/124/124
f 126/126/126 128/128/128 127/127/127
f 128/128/128 129/129/129 127/127/127
f 128/128/128 130/130/130 129/129/129
f 130/130/130 131/131/131 129/129/129
f 130/130/130 132/132/132 131/131/131
f 135/135/135 134/134/134 133/133/133
f 133/133/133 136/136/136 135/135/135
f 136/136/136 137/137/137 135/135/135
f 136/136/136 138/138/138 137/137/137
f 136/136/136 139/139/139 138/138/138
f 139/139/139 140/140/140 138/138/138
f 139/139/139 141/141/141 140/140/140
f 141/141/141 142/142/142 140/140/140
f 141/141/141 143/143/143 142/142/142
f 143/143/143 144/144/144 142/142/142
v -0.2900947 1.490116E-08 0.02409403
v -0.08774328 5.960464E-08 0.374577
v -0.2900947 0.308449 0.2577493
v -0.08774328 5.960464E-08 0.374577
v -0.4924461 5.960464E-08 0.3745769
v -0.2900947 0.308449 0.2577493
v -0.4924461 5.960464E-08 0.3745769
v -0.2900947 1.490116E-08 0.02409403
v -0.2900947 0.308449 0.2577493
v -0.2900947 1.490116E-08 0.02409403
v -0.4924461 5.960464E-08 0.3745769
v -0.08774328 5.960464E-08 0.374577
vn 0.5383406 0.1025756 -0.3108111
vn 0.5383406 0.1025756 -0.3108111
vn 0.5383406 0.1025756 -0.3108111
vn 0 0.1025757 0.6216222
vn 0 0.1025757 0.6216222
vn 0 0.1025757 0.6216222
vn -0.5383406 0.1025756 -0.3108111
vn -0.5383406 0.1025756 -0.3108111
vn -0.5383406 0.1025756 -0.3108111
vn 0 -0.4229303 5.041722E-08
vn 0 -0.4229303 5.041722E-08
vn 0 -0.4229303 5.041722E-08
vt 0.9999999 0
vt 0 0
vt 0.3333332 1
vt 1 0
vt 0 0
vt 0.5000001 1
vt 1 0
vt 0 0
vt 0.6666667 1
vt 0.8659574 0.999907
vt 0.8659576 9.304319E-05
vt 9.304319E-05 0.5
usemtl 3xR67Md0FcS2xd73clkEncRxdPAYevXr-1327523256-1-0-lowpoly
f 147/147/147 146/146/146 145/145/145
f 150/150/150 149/149/149 148/148/148
f 153/153/153 152/152/152 151/151/151
f 156/156/156 155/155/155 154/154/154
v -0.004018664 1.490116E-08 -0.4536119
v 0.1983327 5.960464E-08 -0.1031289
v -0.004018664 0.308449 -0.2199566
v 0.1983327 5.960464E-08 -0.1031289
v -0.20637 5.960464E-08 -0.1031289
v -0.004018664 0.308449 -0.2199566
v -0.20637 5.960464E-08 -0.1031289
v -0.004018664 1.490116E-08 -0.4536119
v -0.004018664 0.308449 -0.2199566
v -0.004018664 1.490116E-08 -0.4536119
v -0.20637 5.960464E-08 -0.1031289
v 0.1983327 5.960464E-08 -0.1031289
vn 0.5383406 0.1025756 -0.3108111
vn 0.5383406 0.1025756 -0.3108111
vn 0.5383406 0.1025756 -0.3108111
vn 0 0.1025757 0.6216222
vn 0 0.1025757 0.6216222
vn 0 0.1025757 0.6216222
vn -0.5383405 0.1025756 -0.3108111
vn -0.5383405 0.1025756 -0.3108111
vn -0.5383405 0.1025756 -0.3108111
vn 0 -0.4229303 5.041722E-08
vn 0 -0.4229303 5.041722E-08
vn 0 -0.4229303 5.041722E-08
vt 0.9999999 0
vt 0 0
vt 0.3333332 1
vt 1 0
vt 0 0
vt 0.5000001 1
vt 1 0
vt 0 0
vt 0.6666667 1
vt 0.8659574 0.999907
vt 0.8659576 9.304319E-05
vt 9.304319E-05 0.5
usemtl 3xR67Md0FcS2xd73clkEncRxdPAYevXr-1327523256-1-0-lowpoly
f 159/159/159 158/158/158 157/157/157
f 162/162/162 161/161/161 160/160/160
f 165/165/165 164/164/164 163/163/163
f 168/168/168 167/167/167 166/166/166
v 0.2900949 1.490116E-08 0.03280918
v 0.4924462 5.960464E-08 0.3832921
v 0.2900949 0.308449 0.2664644
v 0.4924462 5.960464E-08 0.3832921
v 0.08774346 5.960464E-08 0.3832921
v 0.2900949 0.308449 0.2664644
v 0.08774346 5.960464E-08 0.3832921
v 0.2900949 1.490116E-08 0.03280918
v 0.2900949 0.308449 0.2664644
v 0.2900949 1.490116E-08 0.03280918
v 0.08774346 5.960464E-08 0.3832921
v 0.4924462 5.960464E-08 0.3832921
vn 0.5383406 0.1025756 -0.3108111
vn 0.5383406 0.1025756 -0.3108111
vn 0.5383406 0.1025756 -0.3108111
vn 0 0.1025757 0.6216222
vn 0 0.1025757 0.6216222
vn 0 0.1025757 0.6216222
vn -0.5383406 0.1025756 -0.3108111
vn -0.5383406 0.1025756 -0.3108111
vn -0.5383406 0.1025756 -0.3108111
vn 0 -0.4229303 5.041722E-08
vn 0 -0.4229303 5.041722E-08
vn 0 -0.4229303 5.041722E-08
vt 0.9999999 0
vt 0 0
vt 0.3333332 1
vt 1 0
vt 0 0
vt 0.5000001 1
vt 1 0
vt 0 0
vt 0.6666667 1
vt 0.8659574 0.999907
vt 0.8659576 9.304319E-05
vt 9.304319E-05 0.5
usemtl 3xR67Md0FcS2xd73clkEncRxdPAYevXr-1327523256-1-0-lowpoly
f 171/171/171 170/170/170 169/169/169
f 174/174/174 173/173/173 172/172/172
f 177/177/177 176/176/176 175/175/175
f 180/180/180 179/179/179 178/178/178
